<mxfile host="65bd71144e">
    <diagram id="F9XTcvT-Dy0kJKMpwNKk" name="Page-1">
        <mxGraphModel dx="3500" dy="1139" grid="1" gridSize="10" guides="1" tooltips="1" connect="1" arrows="1" fold="1" page="1" pageScale="1" pageWidth="850" pageHeight="1100" math="0" shadow="0">
            <root>
                <mxCell id="0"/>
                <mxCell id="1" parent="0"/>
                <mxCell id="22" value="Entity" style="swimlane;fontStyle=0;align=center;verticalAlign=top;childLayout=stackLayout;horizontal=1;startSize=55;horizontalStack=0;resizeParent=1;resizeParentMax=0;resizeLast=0;collapsible=0;marginBottom=0;html=1;fontColor=#FFFFFF;" vertex="1" parent="1">
                    <mxGeometry x="100" y="257" width="320" height="203" as="geometry"/>
                </mxCell>
                <mxCell id="23" value="attributes" style="text;html=1;strokeColor=none;fillColor=none;align=center;verticalAlign=middle;spacingLeft=4;spacingRight=4;overflow=hidden;rotatable=0;points=[[0,0.5],[1,0.5]];portConstraint=eastwest;fontColor=#FFFFFF;" vertex="1" parent="22">
                    <mxGeometry y="55" width="320" height="20" as="geometry"/>
                </mxCell>
                <mxCell id="24" value="id: str" style="text;html=1;strokeColor=none;fillColor=none;align=left;verticalAlign=middle;spacingLeft=4;spacingRight=4;overflow=hidden;rotatable=0;points=[[0,0.5],[1,0.5]];portConstraint=eastwest;fontColor=#FFFFFF;" vertex="1" parent="22">
                    <mxGeometry y="75" width="320" height="20" as="geometry"/>
                </mxCell>
                <mxCell id="31" value="created_at: str" style="text;html=1;strokeColor=none;fillColor=none;align=left;verticalAlign=middle;spacingLeft=4;spacingRight=4;overflow=hidden;rotatable=0;points=[[0,0.5],[1,0.5]];portConstraint=eastwest;fontColor=#FFFFFF;" vertex="1" parent="22">
                    <mxGeometry y="95" width="320" height="20" as="geometry"/>
                </mxCell>
                <mxCell id="25" value="inherited attribute2" style="text;html=1;strokeColor=none;fillColor=none;align=left;verticalAlign=middle;spacingLeft=4;spacingRight=4;overflow=hidden;rotatable=0;points=[[0,0.5],[1,0.5]];portConstraint=eastwest;fontColor=#808080;" vertex="1" parent="22">
                    <mxGeometry y="115" width="320" height="20" as="geometry"/>
                </mxCell>
                <mxCell id="27" value="" style="line;strokeWidth=1;fillColor=none;align=left;verticalAlign=middle;spacingTop=-1;spacingLeft=3;spacingRight=3;rotatable=0;labelPosition=right;points=[];portConstraint=eastwest;fontColor=#FFFFFF;" vertex="1" parent="22">
                    <mxGeometry y="135" width="320" height="8" as="geometry"/>
                </mxCell>
                <mxCell id="28" value="operations" style="text;html=1;strokeColor=none;fillColor=none;align=center;verticalAlign=middle;spacingLeft=4;spacingRight=4;overflow=hidden;rotatable=0;points=[[0,0.5],[1,0.5]];portConstraint=eastwest;fontColor=#FFFFFF;" vertex="1" parent="22">
                    <mxGeometry y="143" width="320" height="20" as="geometry"/>
                </mxCell>
                <mxCell id="29" value="operation1" style="text;html=1;strokeColor=none;fillColor=none;align=left;verticalAlign=middle;spacingLeft=4;spacingRight=4;overflow=hidden;rotatable=0;points=[[0,0.5],[1,0.5]];portConstraint=eastwest;fontColor=#FFFFFF;" vertex="1" parent="22">
                    <mxGeometry y="163" width="320" height="20" as="geometry"/>
                </mxCell>
                <mxCell id="30" value="operation1" style="text;html=1;strokeColor=none;fillColor=none;align=left;verticalAlign=middle;spacingLeft=4;spacingRight=4;overflow=hidden;rotatable=0;points=[[0,0.5],[1,0.5]];portConstraint=eastwest;fontColor=#FFFFFF;" vertex="1" parent="22">
                    <mxGeometry y="183" width="320" height="20" as="geometry"/>
                </mxCell>
                <mxCell id="42" style="edgeStyle=none;html=1;exitX=0.5;exitY=0;exitDx=0;exitDy=0;fontColor=#FFFFFF;" edge="1" parent="1" source="32" target="30">
                    <mxGeometry relative="1" as="geometry"/>
                </mxCell>
                <mxCell id="32" value="Node" style="swimlane;fontStyle=0;align=center;verticalAlign=top;childLayout=stackLayout;horizontal=1;startSize=55;horizontalStack=0;resizeParent=1;resizeParentMax=0;resizeLast=0;collapsible=0;marginBottom=0;html=1;fontColor=#FFFFFF;" vertex="1" parent="1">
                    <mxGeometry x="100" y="640" width="320" height="223" as="geometry"/>
                </mxCell>
                <mxCell id="33" value="attributes" style="text;html=1;strokeColor=none;fillColor=none;align=center;verticalAlign=middle;spacingLeft=4;spacingRight=4;overflow=hidden;rotatable=0;points=[[0,0.5],[1,0.5]];portConstraint=eastwest;fontColor=#FFFFFF;" vertex="1" parent="32">
                    <mxGeometry y="55" width="320" height="20" as="geometry"/>
                </mxCell>
                <mxCell id="57" value="producer: Producer" style="text;html=1;strokeColor=none;fillColor=none;align=left;verticalAlign=middle;spacingLeft=4;spacingRight=4;overflow=hidden;rotatable=0;points=[[0,0.5],[1,0.5]];portConstraint=eastwest;fontColor=#FFFFFF;" vertex="1" parent="32">
                    <mxGeometry y="75" width="320" height="20" as="geometry"/>
                </mxCell>
                <mxCell id="56" value="consumer: Consumer" style="text;html=1;strokeColor=none;fillColor=none;align=left;verticalAlign=middle;spacingLeft=4;spacingRight=4;overflow=hidden;rotatable=0;points=[[0,0.5],[1,0.5]];portConstraint=eastwest;fontColor=#FFFFFF;" vertex="1" parent="32">
                    <mxGeometry y="95" width="320" height="20" as="geometry"/>
                </mxCell>
                <mxCell id="111" value="&lt;span style=&quot;text-align: center;&quot;&gt;publiser&lt;/span&gt;:&amp;nbsp;&lt;span style=&quot;text-align: center;&quot;&gt;Publiser&lt;/span&gt;" style="text;html=1;strokeColor=none;fillColor=none;align=left;verticalAlign=middle;spacingLeft=4;spacingRight=4;overflow=hidden;rotatable=0;points=[[0,0.5],[1,0.5]];portConstraint=eastwest;fontColor=#FFFFFF;" vertex="1" parent="32">
                    <mxGeometry y="115" width="320" height="20" as="geometry"/>
                </mxCell>
                <mxCell id="36" value="inherited attribute2" style="text;html=1;strokeColor=none;fillColor=none;align=left;verticalAlign=middle;spacingLeft=4;spacingRight=4;overflow=hidden;rotatable=0;points=[[0,0.5],[1,0.5]];portConstraint=eastwest;fontColor=#808080;" vertex="1" parent="32">
                    <mxGeometry y="135" width="320" height="20" as="geometry"/>
                </mxCell>
                <mxCell id="37" value="" style="line;strokeWidth=1;fillColor=none;align=left;verticalAlign=middle;spacingTop=-1;spacingLeft=3;spacingRight=3;rotatable=0;labelPosition=right;points=[];portConstraint=eastwest;fontColor=#FFFFFF;" vertex="1" parent="32">
                    <mxGeometry y="155" width="320" height="8" as="geometry"/>
                </mxCell>
                <mxCell id="38" value="operations" style="text;html=1;strokeColor=none;fillColor=none;align=center;verticalAlign=middle;spacingLeft=4;spacingRight=4;overflow=hidden;rotatable=0;points=[[0,0.5],[1,0.5]];portConstraint=eastwest;fontColor=#FFFFFF;" vertex="1" parent="32">
                    <mxGeometry y="163" width="320" height="20" as="geometry"/>
                </mxCell>
                <mxCell id="39" value="calculate_net() -&amp;gt; int" style="text;html=1;strokeColor=none;fillColor=none;align=left;verticalAlign=middle;spacingLeft=4;spacingRight=4;overflow=hidden;rotatable=0;points=[[0,0.5],[1,0.5]];portConstraint=eastwest;fontColor=#FFFFFF;" vertex="1" parent="32">
                    <mxGeometry y="183" width="320" height="20" as="geometry"/>
                </mxCell>
                <mxCell id="40" value="operation1" style="text;html=1;strokeColor=none;fillColor=none;align=left;verticalAlign=middle;spacingLeft=4;spacingRight=4;overflow=hidden;rotatable=0;points=[[0,0.5],[1,0.5]];portConstraint=eastwest;fontColor=#FFFFFF;" vertex="1" parent="32">
                    <mxGeometry y="203" width="320" height="20" as="geometry"/>
                </mxCell>
                <mxCell id="72" style="edgeStyle=none;html=1;exitX=0.5;exitY=0;exitDx=0;exitDy=0;entryX=0.756;entryY=1.15;entryDx=0;entryDy=0;entryPerimeter=0;fontColor=#FFFFFF;" edge="1" parent="1" source="43" target="30">
                    <mxGeometry relative="1" as="geometry">
                        <Array as="points">
                            <mxPoint x="660" y="560"/>
                            <mxPoint x="342" y="560"/>
                        </Array>
                    </mxGeometry>
                </mxCell>
                <mxCell id="43" value="Edge" style="swimlane;fontStyle=0;align=center;verticalAlign=top;childLayout=stackLayout;horizontal=1;startSize=55;horizontalStack=0;resizeParent=1;resizeParentMax=0;resizeLast=0;collapsible=0;marginBottom=0;html=1;fontColor=#FFFFFF;" vertex="1" parent="1">
                    <mxGeometry x="500" y="640" width="320" height="243" as="geometry"/>
                </mxCell>
                <mxCell id="44" value="attributes" style="text;html=1;strokeColor=none;fillColor=none;align=center;verticalAlign=middle;spacingLeft=4;spacingRight=4;overflow=hidden;rotatable=0;points=[[0,0.5],[1,0.5]];portConstraint=eastwest;fontColor=#FFFFFF;" vertex="1" parent="43">
                    <mxGeometry y="55" width="320" height="20" as="geometry"/>
                </mxCell>
                <mxCell id="53" value="from_node" style="text;html=1;strokeColor=none;fillColor=none;align=left;verticalAlign=middle;spacingLeft=4;spacingRight=4;overflow=hidden;rotatable=0;points=[[0,0.5],[1,0.5]];portConstraint=eastwest;fontColor=#FFFFFF;" vertex="1" parent="43">
                    <mxGeometry y="75" width="320" height="20" as="geometry"/>
                </mxCell>
                <mxCell id="46" value="to_node" style="text;html=1;strokeColor=none;fillColor=none;align=left;verticalAlign=middle;spacingLeft=4;spacingRight=4;overflow=hidden;rotatable=0;points=[[0,0.5],[1,0.5]];portConstraint=eastwest;fontColor=#FFFFFF;" vertex="1" parent="43">
                    <mxGeometry y="95" width="320" height="20" as="geometry"/>
                </mxCell>
                <mxCell id="110" value="transmission_medium: Transmitter" style="text;html=1;strokeColor=none;fillColor=none;align=left;verticalAlign=middle;spacingLeft=4;spacingRight=4;overflow=hidden;rotatable=0;points=[[0,0.5],[1,0.5]];portConstraint=eastwest;fontColor=#FFFFFF;" vertex="1" parent="43">
                    <mxGeometry y="115" width="320" height="20" as="geometry"/>
                </mxCell>
                <mxCell id="92" value="&lt;span style=&quot;text-align: center;&quot;&gt;publiser&lt;/span&gt;:&amp;nbsp;&lt;span style=&quot;text-align: center;&quot;&gt;Publiser&lt;/span&gt;" style="text;html=1;strokeColor=none;fillColor=none;align=left;verticalAlign=middle;spacingLeft=4;spacingRight=4;overflow=hidden;rotatable=0;points=[[0,0.5],[1,0.5]];portConstraint=eastwest;fontColor=#FFFFFF;" vertex="1" parent="43">
                    <mxGeometry y="135" width="320" height="20" as="geometry"/>
                </mxCell>
                <mxCell id="47" value="inherited attribute2" style="text;html=1;strokeColor=none;fillColor=none;align=left;verticalAlign=middle;spacingLeft=4;spacingRight=4;overflow=hidden;rotatable=0;points=[[0,0.5],[1,0.5]];portConstraint=eastwest;fontColor=#808080;" vertex="1" parent="43">
                    <mxGeometry y="155" width="320" height="20" as="geometry"/>
                </mxCell>
                <mxCell id="48" value="" style="line;strokeWidth=1;fillColor=none;align=left;verticalAlign=middle;spacingTop=-1;spacingLeft=3;spacingRight=3;rotatable=0;labelPosition=right;points=[];portConstraint=eastwest;fontColor=#FFFFFF;" vertex="1" parent="43">
                    <mxGeometry y="175" width="320" height="8" as="geometry"/>
                </mxCell>
                <mxCell id="49" value="operations" style="text;html=1;strokeColor=none;fillColor=none;align=center;verticalAlign=middle;spacingLeft=4;spacingRight=4;overflow=hidden;rotatable=0;points=[[0,0.5],[1,0.5]];portConstraint=eastwest;fontColor=#FFFFFF;" vertex="1" parent="43">
                    <mxGeometry y="183" width="320" height="20" as="geometry"/>
                </mxCell>
                <mxCell id="50" value="operation1" style="text;html=1;strokeColor=none;fillColor=none;align=left;verticalAlign=middle;spacingLeft=4;spacingRight=4;overflow=hidden;rotatable=0;points=[[0,0.5],[1,0.5]];portConstraint=eastwest;fontColor=#FFFFFF;" vertex="1" parent="43">
                    <mxGeometry y="203" width="320" height="20" as="geometry"/>
                </mxCell>
                <mxCell id="51" value="operation1" style="text;html=1;strokeColor=none;fillColor=none;align=left;verticalAlign=middle;spacingLeft=4;spacingRight=4;overflow=hidden;rotatable=0;points=[[0,0.5],[1,0.5]];portConstraint=eastwest;fontColor=#FFFFFF;" vertex="1" parent="43">
                    <mxGeometry y="223" width="320" height="20" as="geometry"/>
                </mxCell>
                <mxCell id="70" style="edgeStyle=none;html=1;exitX=0.5;exitY=0;exitDx=0;exitDy=0;entryX=0;entryY=0.5;entryDx=0;entryDy=0;fontColor=#FFFFFF;" edge="1" parent="1" source="58" target="57">
                    <mxGeometry relative="1" as="geometry">
                        <Array as="points">
                            <mxPoint x="-460" y="725"/>
                            <mxPoint y="725"/>
                        </Array>
                    </mxGeometry>
                </mxCell>
                <mxCell id="58" value="Producer" style="swimlane;fontStyle=0;align=center;verticalAlign=top;childLayout=stackLayout;horizontal=1;startSize=55;horizontalStack=0;resizeParent=1;resizeParentMax=0;resizeLast=0;collapsible=0;marginBottom=0;html=1;fontColor=#FFFFFF;" vertex="1" parent="1">
                    <mxGeometry x="-620" y="843" width="320" height="143" as="geometry"/>
                </mxCell>
                <mxCell id="59" value="attributes" style="text;html=1;strokeColor=none;fillColor=none;align=center;verticalAlign=middle;spacingLeft=4;spacingRight=4;overflow=hidden;rotatable=0;points=[[0,0.5],[1,0.5]];portConstraint=eastwest;fontColor=#FFFFFF;" vertex="1" parent="58">
                    <mxGeometry y="55" width="320" height="20" as="geometry"/>
                </mxCell>
                <mxCell id="65" value="" style="line;strokeWidth=1;fillColor=none;align=left;verticalAlign=middle;spacingTop=-1;spacingLeft=3;spacingRight=3;rotatable=0;labelPosition=right;points=[];portConstraint=eastwest;fontColor=#FFFFFF;" vertex="1" parent="58">
                    <mxGeometry y="75" width="320" height="8" as="geometry"/>
                </mxCell>
                <mxCell id="66" value="operations" style="text;html=1;strokeColor=none;fillColor=none;align=center;verticalAlign=middle;spacingLeft=4;spacingRight=4;overflow=hidden;rotatable=0;points=[[0,0.5],[1,0.5]];portConstraint=eastwest;fontColor=#FFFFFF;" vertex="1" parent="58">
                    <mxGeometry y="83" width="320" height="20" as="geometry"/>
                </mxCell>
                <mxCell id="67" value="get_production () -&amp;gt; int" style="text;html=1;strokeColor=none;fillColor=none;align=left;verticalAlign=middle;spacingLeft=4;spacingRight=4;overflow=hidden;rotatable=0;points=[[0,0.5],[1,0.5]];portConstraint=eastwest;fontColor=#FFFFFF;" vertex="1" parent="58">
                    <mxGeometry y="103" width="320" height="20" as="geometry"/>
                </mxCell>
                <mxCell id="68" value="operation1" style="text;html=1;strokeColor=none;fillColor=none;align=left;verticalAlign=middle;spacingLeft=4;spacingRight=4;overflow=hidden;rotatable=0;points=[[0,0.5],[1,0.5]];portConstraint=eastwest;fontColor=#FFFFFF;" vertex="1" parent="58">
                    <mxGeometry y="123" width="320" height="20" as="geometry"/>
                </mxCell>
                <mxCell id="82" style="edgeStyle=none;html=1;exitX=0.5;exitY=0;exitDx=0;exitDy=0;entryX=0;entryY=0.5;entryDx=0;entryDy=0;fontColor=#FFFFFF;" edge="1" parent="1" source="73" target="56">
                    <mxGeometry relative="1" as="geometry">
                        <Array as="points">
                            <mxPoint x="-110" y="745"/>
                        </Array>
                    </mxGeometry>
                </mxCell>
                <mxCell id="73" value="Consumer" style="swimlane;fontStyle=0;align=center;verticalAlign=top;childLayout=stackLayout;horizontal=1;startSize=55;horizontalStack=0;resizeParent=1;resizeParentMax=0;resizeLast=0;collapsible=0;marginBottom=0;html=1;fontColor=#FFFFFF;" vertex="1" parent="1">
                    <mxGeometry x="-270" y="843" width="320" height="123" as="geometry"/>
                </mxCell>
                <mxCell id="74" value="attributes" style="text;html=1;strokeColor=none;fillColor=none;align=center;verticalAlign=middle;spacingLeft=4;spacingRight=4;overflow=hidden;rotatable=0;points=[[0,0.5],[1,0.5]];portConstraint=eastwest;fontColor=#FFFFFF;" vertex="1" parent="73">
                    <mxGeometry y="55" width="320" height="20" as="geometry"/>
                </mxCell>
                <mxCell id="78" value="" style="line;strokeWidth=1;fillColor=none;align=left;verticalAlign=middle;spacingTop=-1;spacingLeft=3;spacingRight=3;rotatable=0;labelPosition=right;points=[];portConstraint=eastwest;fontColor=#FFFFFF;" vertex="1" parent="73">
                    <mxGeometry y="75" width="320" height="8" as="geometry"/>
                </mxCell>
                <mxCell id="79" value="operations" style="text;html=1;strokeColor=none;fillColor=none;align=center;verticalAlign=middle;spacingLeft=4;spacingRight=4;overflow=hidden;rotatable=0;points=[[0,0.5],[1,0.5]];portConstraint=eastwest;fontColor=#FFFFFF;" vertex="1" parent="73">
                    <mxGeometry y="83" width="320" height="20" as="geometry"/>
                </mxCell>
                <mxCell id="81" value="get_consumption() -&amp;gt; int" style="text;html=1;strokeColor=none;fillColor=none;align=left;verticalAlign=middle;spacingLeft=4;spacingRight=4;overflow=hidden;rotatable=0;points=[[0,0.5],[1,0.5]];portConstraint=eastwest;fontColor=#FFFFFF;" vertex="1" parent="73">
                    <mxGeometry y="103" width="320" height="20" as="geometry"/>
                </mxCell>
                <mxCell id="89" style="edgeStyle=none;html=1;entryX=0.497;entryY=1.2;entryDx=0;entryDy=0;entryPerimeter=0;fontColor=#FFFFFF;dashed=1;exitX=0.5;exitY=0;exitDx=0;exitDy=0;" edge="1" parent="1" source="83" target="68">
                    <mxGeometry relative="1" as="geometry">
                        <Array as="points">
                            <mxPoint x="-630" y="1060"/>
                            <mxPoint x="-461" y="1060"/>
                        </Array>
                    </mxGeometry>
                </mxCell>
                <mxCell id="83" value="CoalPlant" style="swimlane;fontStyle=0;align=center;verticalAlign=top;childLayout=stackLayout;horizontal=1;startSize=55;horizontalStack=0;resizeParent=1;resizeParentMax=0;resizeLast=0;collapsible=0;marginBottom=0;html=1;fontColor=#FFFFFF;" vertex="1" parent="1">
                    <mxGeometry x="-790" y="1150" width="320" height="183" as="geometry"/>
                </mxCell>
                <mxCell id="84" value="attributes" style="text;html=1;strokeColor=none;fillColor=none;align=center;verticalAlign=middle;spacingLeft=4;spacingRight=4;overflow=hidden;rotatable=0;points=[[0,0.5],[1,0.5]];portConstraint=eastwest;fontColor=#FFFFFF;" vertex="1" parent="83">
                    <mxGeometry y="55" width="320" height="20" as="geometry"/>
                </mxCell>
                <mxCell id="90" value="production_rate: int" style="text;html=1;strokeColor=none;fillColor=none;align=left;verticalAlign=middle;spacingLeft=4;spacingRight=4;overflow=hidden;rotatable=0;points=[[0,0.5],[1,0.5]];portConstraint=eastwest;fontColor=#FFFFFF;" vertex="1" parent="83">
                    <mxGeometry y="75" width="320" height="20" as="geometry"/>
                </mxCell>
                <mxCell id="91" value="efficency_factor: int" style="text;html=1;strokeColor=none;fillColor=none;align=left;verticalAlign=middle;spacingLeft=4;spacingRight=4;overflow=hidden;rotatable=0;points=[[0,0.5],[1,0.5]];portConstraint=eastwest;fontColor=#FFFFFF;" vertex="1" parent="83">
                    <mxGeometry y="95" width="320" height="20" as="geometry"/>
                </mxCell>
                <mxCell id="85" value="" style="line;strokeWidth=1;fillColor=none;align=left;verticalAlign=middle;spacingTop=-1;spacingLeft=3;spacingRight=3;rotatable=0;labelPosition=right;points=[];portConstraint=eastwest;fontColor=#FFFFFF;" vertex="1" parent="83">
                    <mxGeometry y="115" width="320" height="8" as="geometry"/>
                </mxCell>
                <mxCell id="86" value="operations" style="text;html=1;strokeColor=none;fillColor=none;align=center;verticalAlign=middle;spacingLeft=4;spacingRight=4;overflow=hidden;rotatable=0;points=[[0,0.5],[1,0.5]];portConstraint=eastwest;fontColor=#FFFFFF;" vertex="1" parent="83">
                    <mxGeometry y="123" width="320" height="20" as="geometry"/>
                </mxCell>
                <mxCell id="87" value="get_production () -&amp;gt; int" style="text;html=1;strokeColor=none;fillColor=none;align=left;verticalAlign=middle;spacingLeft=4;spacingRight=4;overflow=hidden;rotatable=0;points=[[0,0.5],[1,0.5]];portConstraint=eastwest;fontColor=#FFFFFF;" vertex="1" parent="83">
                    <mxGeometry y="143" width="320" height="20" as="geometry"/>
                </mxCell>
                <mxCell id="88" value="operation1" style="text;html=1;strokeColor=none;fillColor=none;align=left;verticalAlign=middle;spacingLeft=4;spacingRight=4;overflow=hidden;rotatable=0;points=[[0,0.5],[1,0.5]];portConstraint=eastwest;fontColor=#FFFFFF;" vertex="1" parent="83">
                    <mxGeometry y="163" width="320" height="20" as="geometry"/>
                </mxCell>
                <mxCell id="98" style="edgeStyle=none;html=1;exitX=0.5;exitY=0;exitDx=0;exitDy=0;entryX=1;entryY=0.5;entryDx=0;entryDy=0;dashed=1;fontColor=#FFFFFF;" edge="1" parent="1" source="93" target="110">
                    <mxGeometry relative="1" as="geometry">
                        <Array as="points">
                            <mxPoint x="1040" y="765"/>
                        </Array>
                    </mxGeometry>
                </mxCell>
                <mxCell id="93" value="Transmitter" style="swimlane;fontStyle=0;align=center;verticalAlign=top;childLayout=stackLayout;horizontal=1;startSize=55;horizontalStack=0;resizeParent=1;resizeParentMax=0;resizeLast=0;collapsible=0;marginBottom=0;html=1;fontColor=#FFFFFF;" vertex="1" parent="1">
                    <mxGeometry x="880" y="853" width="320" height="123" as="geometry"/>
                </mxCell>
                <mxCell id="94" value="attributes" style="text;html=1;strokeColor=none;fillColor=none;align=center;verticalAlign=middle;spacingLeft=4;spacingRight=4;overflow=hidden;rotatable=0;points=[[0,0.5],[1,0.5]];portConstraint=eastwest;fontColor=#FFFFFF;" vertex="1" parent="93">
                    <mxGeometry y="55" width="320" height="20" as="geometry"/>
                </mxCell>
                <mxCell id="95" value="" style="line;strokeWidth=1;fillColor=none;align=left;verticalAlign=middle;spacingTop=-1;spacingLeft=3;spacingRight=3;rotatable=0;labelPosition=right;points=[];portConstraint=eastwest;fontColor=#FFFFFF;" vertex="1" parent="93">
                    <mxGeometry y="75" width="320" height="8" as="geometry"/>
                </mxCell>
                <mxCell id="96" value="operations" style="text;html=1;strokeColor=none;fillColor=none;align=center;verticalAlign=middle;spacingLeft=4;spacingRight=4;overflow=hidden;rotatable=0;points=[[0,0.5],[1,0.5]];portConstraint=eastwest;fontColor=#FFFFFF;" vertex="1" parent="93">
                    <mxGeometry y="83" width="320" height="20" as="geometry"/>
                </mxCell>
                <mxCell id="97" value="get_power_loss(): -&amp;gt; int" style="text;html=1;strokeColor=none;fillColor=none;align=left;verticalAlign=middle;spacingLeft=4;spacingRight=4;overflow=hidden;rotatable=0;points=[[0,0.5],[1,0.5]];portConstraint=eastwest;fontColor=#FFFFFF;" vertex="1" parent="93">
                    <mxGeometry y="103" width="320" height="20" as="geometry"/>
                </mxCell>
                <mxCell id="99" value="Publiser" style="swimlane;fontStyle=0;align=center;verticalAlign=top;childLayout=stackLayout;horizontal=1;startSize=55;horizontalStack=0;resizeParent=1;resizeParentMax=0;resizeLast=0;collapsible=0;marginBottom=0;html=1;fontColor=#FFFFFF;" vertex="1" parent="1">
                    <mxGeometry x="265" y="1100" width="320" height="183" as="geometry"/>
                </mxCell>
                <mxCell id="100" value="attributes" style="text;html=1;strokeColor=none;fillColor=none;align=center;verticalAlign=middle;spacingLeft=4;spacingRight=4;overflow=hidden;rotatable=0;points=[[0,0.5],[1,0.5]];portConstraint=eastwest;fontColor=#FFFFFF;" vertex="1" parent="99">
                    <mxGeometry y="55" width="320" height="20" as="geometry"/>
                </mxCell>
                <mxCell id="101" value="from_node" style="text;html=1;strokeColor=none;fillColor=none;align=left;verticalAlign=middle;spacingLeft=4;spacingRight=4;overflow=hidden;rotatable=0;points=[[0,0.5],[1,0.5]];portConstraint=eastwest;fontColor=#FFFFFF;" vertex="1" parent="99">
                    <mxGeometry y="75" width="320" height="20" as="geometry"/>
                </mxCell>
                <mxCell id="102" value="to_node" style="text;html=1;strokeColor=none;fillColor=none;align=left;verticalAlign=middle;spacingLeft=4;spacingRight=4;overflow=hidden;rotatable=0;points=[[0,0.5],[1,0.5]];portConstraint=eastwest;fontColor=#FFFFFF;" vertex="1" parent="99">
                    <mxGeometry y="95" width="320" height="20" as="geometry"/>
                </mxCell>
                <mxCell id="105" value="" style="line;strokeWidth=1;fillColor=none;align=left;verticalAlign=middle;spacingTop=-1;spacingLeft=3;spacingRight=3;rotatable=0;labelPosition=right;points=[];portConstraint=eastwest;fontColor=#FFFFFF;" vertex="1" parent="99">
                    <mxGeometry y="115" width="320" height="8" as="geometry"/>
                </mxCell>
                <mxCell id="106" value="operations" style="text;html=1;strokeColor=none;fillColor=none;align=center;verticalAlign=middle;spacingLeft=4;spacingRight=4;overflow=hidden;rotatable=0;points=[[0,0.5],[1,0.5]];portConstraint=eastwest;fontColor=#FFFFFF;" vertex="1" parent="99">
                    <mxGeometry y="123" width="320" height="20" as="geometry"/>
                </mxCell>
                <mxCell id="107" value="sub(uuid) -&amp;gt; int" style="text;html=1;strokeColor=none;fillColor=none;align=left;verticalAlign=middle;spacingLeft=4;spacingRight=4;overflow=hidden;rotatable=0;points=[[0,0.5],[1,0.5]];portConstraint=eastwest;fontColor=#FFFFFF;" vertex="1" parent="99">
                    <mxGeometry y="143" width="320" height="20" as="geometry"/>
                </mxCell>
                <mxCell id="108" value="pub(int, uuid) -&amp;gt; None" style="text;html=1;strokeColor=none;fillColor=none;align=left;verticalAlign=middle;spacingLeft=4;spacingRight=4;overflow=hidden;rotatable=0;points=[[0,0.5],[1,0.5]];portConstraint=eastwest;fontColor=#FFFFFF;" vertex="1" parent="99">
                    <mxGeometry y="163" width="320" height="20" as="geometry"/>
                </mxCell>
            </root>
        </mxGraphModel>
    </diagram>
</mxfile>